# xmcd
#
# Track frame offsets:
#	150
#	16079
#	34466
#	64693
#	84910
#	98992
#	113603
#	156763
#	170203
#	187018
#	216248
#	257683
#
# Disc length: 3677 seconds
#
# Revision: 2
# Processed by: cddbd v1.5.1PL2 Copyright (c) Steve Scherf et al.
# Submitted via: freedbtool 1.11
#
DISCID=9f0e5b0c
DTITLE=Stevie Ray Vaughan - Live at el Mocambo Club, Hamburg
DYEAR=1900
DGENRE=
TTITLE0=Testify
TTITLE1=So Excited
TTITLE2=Voodoo Chile (Slight Return)
TTITLE3=Pride and Joy- 
TTITLE4=Tell Me
TTITLE5=Mary Had A Little Lamb
TTITLE6=Texas Flood
TTITLE7=Love Struck Baby
TTITLE8=Hug You Squeeze you
TTITLE9=Third Stone From The Sun
TTITLE10=Lenny
TTITLE11=Wham!
EXTD=
EXTT0=
EXTT1=
EXTT2=Stunning!!!
EXTT3=A Stevie Ray standard
EXTT4=
EXTT5=
EXTT6=His licks here are incredible
EXTT7=Another standard
EXTT8=
EXTT9=
EXTT10=
EXTT11=
PLAYORDER=
